<svg width="100" height="100" viewBox="0 0 100 100" fill="none" xmlns="http://www.w3.org/2000/svg">
<g clip-path="url(#clip0_8181_10364)">
<path d="M50 100C77.6142 100 100 77.6142 100 50C100 22.3858 77.6142 0 50 0C22.3858 0 0 22.3858 0 50C0 77.6142 22.3858 100 50 100Z" fill="#1254a0"/>
<path d="M64.1617 31.4837C64.1617 39.2015 51.0289 61.2033 50.1873 61.2033C49.3457 61.2033 36.2129 39.2015 36.2129 31.4837C36.2129 23.7659 42.4694 17.5093 50.1873 17.5093C57.9052 17.5093 64.1617 23.7658 64.1617 31.4837ZM43.272 31.2062C43.272 35.0254 46.3681 38.1215 50.1873 38.1215C54.0065 38.1215 57.1026 35.0254 57.1026 31.2062C57.1026 27.387 54.0065 24.2909 50.1873 24.2909C46.3681 24.2909 43.272 27.387 43.272 31.2062Z" stroke="white" stroke-width="2" stroke-miterlimit="10"/>
<path d="M47.4314 57.29L33.7568 60.9832L38.5388 62.2717L43.6112 63.6419L44.0468 63.7599L50.1899 65.4204L66.6231 60.9832L60.4799 59.3226L52.9484 57.29" stroke="white" stroke-width="2" stroke-linecap="round" stroke-linejoin="round"/>
<path d="M66.6217 78.0518L50.1875 82.4903" stroke="white" stroke-width="2" stroke-linecap="round" stroke-linejoin="round"/>
<path d="M50.1871 65.4195V82.49L33.7529 78.0515V60.981L50.1871 65.4195Z" stroke="white" stroke-width="2" stroke-linecap="round" stroke-linejoin="round"/>
<path d="M66.6211 78.0515V60.981" stroke="white" stroke-width="2" stroke-linecap="round" stroke-linejoin="round"/>
</g>
<defs>
<clipPath id="clip0_8181_10364">
<rect width="100" height="100" fill="white"/>
</clipPath>
</defs>
</svg>
