<svg width="100" height="100" viewBox="0 0 100 100" fill="none" xmlns="http://www.w3.org/2000/svg">
<g clip-path="url(#clip0_8181_10368)">
<path d="M50 100C77.6142 100 100 77.6142 100 50C100 22.3858 77.6142 0 50 0C22.3858 0 0 22.3858 0 50C0 77.6142 22.3858 100 50 100Z" fill="#1254a0"/>
<path d="M75.8681 23.8511H24.6653C21.325 23.8511 18.6172 26.5589 18.6172 29.8992V76.4424C18.6172 79.7826 21.325 82.4905 24.6653 82.4905H75.8681C79.2084 82.4905 81.9162 79.7826 81.9162 76.4424V29.8992C81.9162 26.5589 79.2084 23.8511 75.8681 23.8511Z" stroke="white" stroke-width="2.2165" stroke-linecap="round" stroke-linejoin="round"/>
<path d="M18.6172 41.5107H81.9162" stroke="white" stroke-width="2" stroke-linecap="round" stroke-linejoin="round"/>
<path d="M33.9785 19.0864V28.616" stroke="white" stroke-width="3" stroke-linecap="round" stroke-linejoin="round"/>
<path d="M67.4258 19.0864V28.616" stroke="white" stroke-width="3" stroke-linecap="round" stroke-linejoin="round"/>
<path d="M50.3398 19.0864V28.616" stroke="white" stroke-width="3" stroke-linecap="round" stroke-linejoin="round"/>
<path d="M37.9475 46.6602H33.0295C32.1907 46.6602 31.5107 47.3401 31.5107 48.179V53.097C31.5107 53.9358 32.1907 54.6158 33.0295 54.6158H37.9475C38.7864 54.6158 39.4663 53.9358 39.4663 53.097V48.179C39.4663 47.3401 38.7864 46.6602 37.9475 46.6602Z" fill="white"/>
<path d="M52.6507 46.6602H47.7327C46.8939 46.6602 46.2139 47.3401 46.2139 48.179V53.097C46.2139 53.9358 46.8939 54.6158 47.7327 54.6158H52.6507C53.4895 54.6158 54.1695 53.9358 54.1695 53.097V48.179C54.1695 47.3401 53.4895 46.6602 52.6507 46.6602Z" fill="white"/>
<path d="M67.3538 46.6602H62.4358C61.597 46.6602 60.917 47.3401 60.917 48.179V53.097C60.917 53.9358 61.597 54.6158 62.4358 54.6158H67.3538C68.1926 54.6158 68.8726 53.9358 68.8726 53.097V48.179C68.8726 47.3401 68.1926 46.6602 67.3538 46.6602Z" fill="white"/>
<path d="M37.9475 57.1909H33.0295C32.1907 57.1909 31.5107 57.8709 31.5107 58.7097V63.6277C31.5107 64.4665 32.1907 65.1465 33.0295 65.1465H37.9475C38.7864 65.1465 39.4663 64.4665 39.4663 63.6277V58.7097C39.4663 57.8709 38.7864 57.1909 37.9475 57.1909Z" fill="white"/>
<path d="M52.6507 57.1909H47.7327C46.8939 57.1909 46.2139 57.8709 46.2139 58.7097V63.6277C46.2139 64.4665 46.8939 65.1465 47.7327 65.1465H52.6507C53.4895 65.1465 54.1695 64.4665 54.1695 63.6277V58.7097C54.1695 57.8709 53.4895 57.1909 52.6507 57.1909Z" fill="white"/>
<path d="M67.3538 57.1909H62.4358C61.597 57.1909 60.917 57.8709 60.917 58.7097V63.6277C60.917 64.4665 61.597 65.1465 62.4358 65.1465H67.3538C68.1926 65.1465 68.8726 64.4665 68.8726 63.6277V58.7097C68.8726 57.8709 68.1926 57.1909 67.3538 57.1909Z" fill="white"/>
<path d="M37.9475 67.4888H33.0295C32.1907 67.4888 31.5107 68.1688 31.5107 69.0076V73.9256C31.5107 74.7644 32.1907 75.4444 33.0295 75.4444H37.9475C38.7864 75.4444 39.4663 74.7644 39.4663 73.9256V69.0076C39.4663 68.1688 38.7864 67.4888 37.9475 67.4888Z" fill="white"/>
<path d="M52.6507 67.4888H47.7327C46.8939 67.4888 46.2139 68.1688 46.2139 69.0076V73.9256C46.2139 74.7644 46.8939 75.4444 47.7327 75.4444H52.6507C53.4895 75.4444 54.1695 74.7644 54.1695 73.9256V69.0076C54.1695 68.1688 53.4895 67.4888 52.6507 67.4888Z" fill="white"/>
<path d="M67.3538 67.4888H62.4358C61.597 67.4888 60.917 68.1688 60.917 69.0076V73.9256C60.917 74.7644 61.597 75.4444 62.4358 75.4444H67.3538C68.1926 75.4444 68.8726 74.7644 68.8726 73.9256V69.0076C68.8726 68.1688 68.1926 67.4888 67.3538 67.4888Z" fill="white"/>
</g>
<defs>
<clipPath id="clip0_8181_10368">
<rect width="100" height="100" fill="white"/>
</clipPath>
</defs>
</svg>
