<svg width="100" height="100" viewBox="0 0 100 100" fill="none" xmlns="http://www.w3.org/2000/svg">
<g clip-path="url(#clip0_8181_10362)">
<path d="M50 100C77.6142 100 100 77.6142 100 50C100 22.3858 77.6142 0 50 0C22.3858 0 0 22.3858 0 50C0 77.6142 22.3858 100 50 100Z" fill="#1254a0"/>
<path d="M49.2564 35.9902C43.8215 44.219 38.4684 52.3239 33.0713 60.4955H36.8479C40.4524 54.873 44.0585 49.2479 47.6647 43.6228C49.0367 49.2394 50.4087 54.8558 51.7852 60.4909H55.2904L55.4265 59.9644C53.3815 52.0186 51.3369 44.0741 49.2564 35.9902Z" fill="white"/>
<path d="M60.8364 37.5059C59.0315 44.9984 57.2288 52.4816 55.4261 59.965L55.29 60.4915H58.7807C60.6254 52.827 62.4652 45.1827 64.3129 37.5059H60.8364Z" fill="white"/>
<path d="M49.9997 73.7504C64.5562 73.7504 76.3566 61.95 76.3566 47.3935C76.3566 32.837 64.5562 21.0366 49.9997 21.0366C35.4432 21.0366 23.6428 32.837 23.6428 47.3935C23.6428 61.95 35.4432 73.7504 49.9997 73.7504ZM21.0469 50.0106C21.0469 34.0204 34.0095 21.0578 49.9997 21.0578C65.9899 21.0578 78.9525 34.0204 78.9525 50.0106C78.9525 66.0008 65.9899 78.9634 49.9997 78.9634C34.0095 78.9634 21.0469 66.0008 21.0469 50.0106Z" fill="white"/>
</g>
<defs>
<clipPath id="clip0_8181_10362">
<rect width="100" height="100" fill="white"/>
</clipPath>
</defs>
</svg>
