<svg width="100" height="100" viewBox="0 0 100 100" fill="none" xmlns="http://www.w3.org/2000/svg">
<g clip-path="url(#clip0_8317_5472)">
<path d="M50 100C77.6142 100 100 77.6142 100 50C100 22.3858 77.6142 0 50 0C22.3858 0 0 22.3858 0 50C0 77.6142 22.3858 100 50 100Z" fill="#1254a0"/>
<path d="M53.3805 34.345V60.375H80.1505C81.4305 60.375 82.4905 59.325 82.4905 58.035V21.445C82.4905 20.155 81.4304 19.105 80.1504 19.105H46.5504C45.2604 19.105 44.2104 20.155 44.2104 21.445V31.355H50.3905M53.3805 34.345C53.3805 32.705 52.0405 31.355 50.3905 31.355M53.3805 34.345L53.3806 77.905C53.3806 79.5451 52.0406 80.8951 50.3906 80.8951H22.8306C21.1906 80.8951 19.8506 79.545 19.8506 77.905V34.345C19.8506 32.705 21.1906 31.355 22.8306 31.355H50.3905M70.4927 31.0059V19.8694C70.4927 19.447 70.1503 19.1045 69.7278 19.1045H57.5873C57.1649 19.1045 56.8224 19.4469 56.8224 19.8694V31.0059C56.8224 31.5348 57.3464 31.9041 57.8445 31.7262L63.4002 29.742C63.5666 29.6826 63.7484 29.6826 63.9147 29.742L69.4704 31.7262C69.9685 31.9041 70.4927 31.5348 70.4927 31.0059ZM49.6368 46.0828V36.403C49.6368 35.7825 49.1291 35.2748 48.5086 35.2748H24.7224C24.1019 35.2748 23.5942 35.7825 23.5942 36.403V46.0828C23.5942 46.7033 24.1019 47.211 24.7224 47.211H48.5086C49.1291 47.211 49.6368 46.7033 49.6368 46.0828ZM29.7219 56.6105V51.3859C29.7219 51.1365 29.5197 50.9344 29.2704 50.9344H24.0458C23.7964 50.9344 23.5943 51.1366 23.5943 51.3859V56.6105C23.5943 56.8599 23.7965 57.062 24.0458 57.062H29.2704C29.5198 57.062 29.7219 56.8598 29.7219 56.6105ZM29.7219 66.0511V60.8265C29.7219 60.5771 29.5197 60.375 29.2704 60.375H24.0458C23.7964 60.375 23.5943 60.5772 23.5943 60.8265V66.0511C23.5943 66.3005 23.7965 66.5026 24.0458 66.5026H29.2704C29.5198 66.5026 29.7219 66.3004 29.7219 66.0511ZM29.7219 75.4917V70.2671C29.7219 70.0177 29.5197 69.8156 29.2704 69.8156H24.0458C23.7964 69.8156 23.5943 70.0178 23.5943 70.2671V75.4917C23.5943 75.7411 23.7965 75.9432 24.0458 75.9432H29.2704C29.5198 75.9432 29.7219 75.741 29.7219 75.4917ZM39.6793 56.6104V51.3858C39.6793 51.1364 39.4771 50.9343 39.2278 50.9343H34.0032C33.7538 50.9343 33.5517 51.1365 33.5517 51.3858V56.6104C33.5517 56.8598 33.7539 57.0619 34.0032 57.0619H39.2278C39.4772 57.0619 39.6793 56.8597 39.6793 56.6104ZM49.6367 56.6104V51.3858C49.6367 51.1364 49.4345 50.9343 49.1852 50.9343H43.9606C43.7112 50.9343 43.5091 51.1365 43.5091 51.3858V56.6104C43.5091 56.8598 43.7113 57.0619 43.9606 57.0619H49.1852C49.4346 57.0619 49.6367 56.8597 49.6367 56.6104ZM39.6793 66.051V60.8264C39.6793 60.577 39.4771 60.3749 39.2278 60.3749H34.0032C33.7538 60.3749 33.5517 60.5771 33.5517 60.8264V66.051C33.5517 66.3004 33.7539 66.5025 34.0032 66.5025H39.2278C39.4772 66.5025 39.6793 66.3003 39.6793 66.051ZM49.6367 75.2234V61.0946C49.6367 60.6971 49.3145 60.3749 48.917 60.3749H44.2288C43.8313 60.3749 43.5091 60.6971 43.5091 61.0946V75.2234C43.5091 75.6209 43.8313 75.9431 44.2288 75.9431H48.917C49.3145 75.9431 49.6367 75.6209 49.6367 75.2234ZM39.6793 75.4916V70.267C39.6793 70.0176 39.4771 69.8155 39.2278 69.8155H34.0032C33.7538 69.8155 33.5517 70.0177 33.5517 70.267V75.4916C33.5517 75.741 33.7539 75.9431 34.0032 75.9431H39.2278C39.4772 75.9431 39.6793 75.7409 39.6793 75.4916Z" stroke="white" stroke-width="2" stroke-miterlimit="10"/>
</g>
<defs>
<clipPath id="clip0_8317_5472">
<rect width="100" height="100" fill="white"/>
</clipPath>
</defs>
</svg>
