<svg width="100" height="100" viewBox="0 0 100 100" fill="none" xmlns="http://www.w3.org/2000/svg">
<g clip-path="url(#clip0_8181_10369)">
<path d="M50 100C77.6142 100 100 77.6142 100 50C100 22.3858 77.6142 0 50 0C22.3858 0 0 22.3858 0 50C0 77.6142 22.3858 100 50 100Z" fill="#1254a0"/>
<path d="M54.2732 65.7158C62.5296 66.3612 68.6941 68.8648 68.6941 71.8358C68.6941 75.2964 60.3598 78.1115 50.0894 78.1115C39.819 78.1115 31.4847 75.2963 31.4847 71.8358C31.4847 68.8648 37.6492 66.3612 45.9056 65.7158M56.7991 61.3206C71.22 62.3554 82.0245 66.6728 82.0245 71.8358C82.0245 77.7777 67.726 82.5958 50.0894 82.5958C32.4528 82.5958 18.1543 77.7777 18.1543 71.8358C18.1543 66.6728 28.9588 62.3554 43.3797 61.3206M67.2267 35.3917C67.2267 44.8558 51.1225 71.8358 50.0904 71.8358C49.0583 71.8358 32.9541 44.8558 32.9541 35.3917C32.9541 25.9276 40.6263 18.2554 50.0904 18.2554C59.5545 18.2554 67.2267 25.9276 67.2267 35.3917ZM41.6104 35.0515C41.6104 39.7349 45.407 43.5315 50.0904 43.5315C54.7738 43.5315 58.5704 39.7349 58.5704 35.0515C58.5704 30.3681 54.7738 26.5715 50.0904 26.5715C45.407 26.5715 41.6104 30.3681 41.6104 35.0515Z" stroke="white" stroke-width="2" stroke-miterlimit="10"/>
</g>
<defs>
<clipPath id="clip0_8181_10369">
<rect width="100" height="100" fill="white"/>
</clipPath>
</defs>
</svg>
