<svg width="129" height="130" viewBox="0 0 129 130" fill="none" xmlns="http://www.w3.org/2000/svg">
<path d="M112.317 81.9112C112.242 81.9112 102.762 78.4952 97.3904 76.8616C96.9058 76.7602 96.4162 76.726 95.9222 76.7596C95.4283 76.7932 94.948 76.8933 94.482 77.06C90.4128 78.8797 86.5023 80.9918 82.7491 83.3968C82.6446 83.4621 82.5482 83.5374 82.4586 83.6214C82.369 83.706 82.2887 83.7987 82.2172 83.8989C82.1463 83.9996 82.0853 84.106 82.0349 84.218C81.9845 84.3306 81.946 84.4469 81.9186 84.567C81.8912 84.6864 81.8757 84.8084 81.8719 84.9316C81.8682 85.0541 81.8769 85.1767 81.8974 85.298C81.918 85.4193 81.9503 85.5375 81.9939 85.6526C82.0374 85.7677 82.0922 85.8772 82.1575 85.9817C82.2228 86.0862 82.2981 86.1826 82.3821 86.2722C82.4667 86.3618 82.5587 86.4426 82.6595 86.5142C82.7597 86.5851 82.8661 86.6461 82.978 86.6971C83.09 86.7475 83.2064 86.7867 83.3264 86.814C83.4465 86.8414 83.5678 86.8576 83.691 86.8613C83.8142 86.8651 83.9361 86.8564 84.0574 86.8364C84.1787 86.8159 84.2969 86.7842 84.4126 86.7406C84.5277 86.6971 84.6372 86.6423 84.7417 86.577C88.2995 84.2815 92.0123 82.272 95.8805 80.5501C96.1113 80.504 96.3428 80.504 96.5736 80.5501C101.957 82.2453 110.98 85.5008 111.066 85.5008C111.181 85.5412 111.299 85.5705 111.42 85.5879C111.541 85.6053 111.662 85.6109 111.784 85.6047C111.906 85.5978 112.026 85.5798 112.144 85.5499C112.262 85.5194 112.376 85.4784 112.486 85.4255C112.597 85.3732 112.7 85.3104 112.798 85.2376C112.896 85.1642 112.985 85.0827 113.067 84.9919C113.149 84.9011 113.221 84.8034 113.283 84.6983C113.346 84.5937 113.397 84.4836 113.438 84.3685C113.478 84.2535 113.507 84.1353 113.525 84.0146C113.542 83.8939 113.548 83.7726 113.541 83.6506C113.535 83.5293 113.516 83.4093 113.486 83.2911C113.456 83.1729 113.415 83.0584 113.362 82.9483C113.309 82.8382 113.247 82.7343 113.173 82.6366C113.1 82.5389 113.018 82.4493 112.927 82.3679C112.837 82.2864 112.739 82.2148 112.634 82.152C112.529 82.0898 112.419 82.0388 112.304 81.9983L112.317 81.9112Z" fill="#1254A0"/>
<path d="M117.81 63.6559L102.648 59.4106C101.635 58.9042 100.679 58.3064 99.7799 57.6171C98.881 56.9284 98.0548 56.1607 97.3021 55.314C96.0927 54.1576 94.7645 53.1591 93.3169 52.3192C93.213 52.2608 93.1047 52.2135 92.9915 52.1761C92.8783 52.1388 92.7632 52.1127 92.645 52.0978C92.5268 52.0828 92.4086 52.0791 92.2898 52.0872C92.1709 52.0946 92.0546 52.1139 91.9395 52.1444C91.8244 52.1743 91.7131 52.2153 91.6061 52.267C91.4984 52.3186 91.3977 52.3796 91.3019 52.4511C91.2067 52.522 91.119 52.6017 91.0387 52.6894C90.9585 52.7771 90.8875 52.8723 90.826 52.9737C90.7637 53.0751 90.7121 53.1815 90.671 53.2934C90.6294 53.4048 90.5989 53.5193 90.5796 53.6362C90.5603 53.7538 90.5522 53.872 90.5553 53.9908C90.5584 54.1097 90.5734 54.2272 90.5989 54.3436C90.625 54.4593 90.6617 54.5719 90.709 54.6814C90.7569 54.7902 90.8141 54.8935 90.8813 54.9918C90.9491 55.0895 91.025 55.1803 91.1103 55.2637C91.1949 55.347 91.2869 55.4217 91.3858 55.4876C92.5591 56.1589 93.6441 56.9508 94.6407 57.8634C95.5714 58.8905 96.5898 59.82 97.6971 60.653C98.8045 61.4853 99.9809 62.2057 101.225 62.8142L101.522 62.9255L116.844 67.2205C117.014 67.2448 117.183 67.2448 117.352 67.2205C117.453 67.2075 117.552 67.1863 117.651 67.1571C117.748 67.1279 117.843 67.0905 117.935 67.0457C118.026 67.0009 118.113 66.9487 118.197 66.8896C118.28 66.8299 118.357 66.7645 118.429 66.6924C118.502 66.6202 118.568 66.5424 118.627 66.4597C118.686 66.3763 118.739 66.2893 118.784 66.1978C118.829 66.1064 118.866 66.0112 118.895 65.9135C118.925 65.8158 118.946 65.7163 118.959 65.6149C118.972 65.5141 118.977 65.4121 118.973 65.3101C118.969 65.208 118.957 65.1072 118.937 65.0071C118.917 64.9069 118.888 64.8093 118.851 64.7141C118.815 64.6189 118.771 64.5274 118.719 64.4391C118.668 64.3514 118.609 64.268 118.543 64.1896C118.478 64.1113 118.407 64.0385 118.329 63.9719C118.252 63.9053 118.17 63.8456 118.083 63.7927C117.995 63.7392 117.904 63.6938 117.81 63.6559Z" fill="#1254A0"/>
<path d="M95.137 24.8062C95.2128 24.7091 95.2775 24.6046 95.3329 24.4945C95.3877 24.3844 95.4318 24.2693 95.4642 24.1505C95.4965 24.0317 95.5171 23.9104 95.5258 23.7872C95.5345 23.6646 95.5307 23.5421 95.5152 23.4195C95.4996 23.297 95.4723 23.1775 95.4331 23.0606C95.3939 22.9436 95.3441 22.8316 95.2831 22.7246C95.2216 22.617 95.1506 22.5175 95.0698 22.4241C94.9889 22.3308 94.8999 22.2468 94.8023 22.1709C94.7046 22.0957 94.6007 22.0303 94.4906 21.975C94.3805 21.9202 94.2654 21.8761 94.1466 21.8437C94.0277 21.8114 93.9064 21.7908 93.7832 21.7821C93.6607 21.7734 93.5381 21.7765 93.4156 21.7921C93.293 21.8076 93.1736 21.835 93.0566 21.8742C92.9397 21.9128 92.8277 21.9632 92.7201 22.0241C92.6131 22.0851 92.5129 22.156 92.4196 22.2369C92.3269 22.3178 92.2423 22.4067 92.167 22.5044C92.167 22.5784 86.1394 30.3386 82.8472 34.9919C82.5654 35.4374 82.3558 35.9139 82.2189 36.4228C82.0814 36.931 82.0229 37.4486 82.0429 37.9749C82.459 41.9981 83.1608 45.9709 84.1468 49.8933C85.0501 53.6066 86.4119 58.4211 87.8595 60.3515C89.3078 62.2825 89.3078 62.703 89.3078 62.8269C88.2807 64.4481 86.6097 63.2474 85.4588 61.6635C85.3873 61.5646 85.3064 61.4738 85.2175 61.391C85.1279 61.3083 85.0315 61.2349 84.9276 61.1708C84.8237 61.1073 84.7142 61.0538 84.6003 61.0115C84.4859 60.9692 84.3683 60.9381 84.2482 60.9195C84.1275 60.9002 84.0068 60.8927 83.8849 60.8971C83.763 60.9021 83.6429 60.9182 83.5241 60.9468C83.4059 60.9748 83.2908 61.0147 83.1801 61.065C83.0693 61.1161 82.9648 61.1776 82.8659 61.2486C82.767 61.3201 82.6762 61.401 82.5934 61.4899C82.5107 61.5795 82.4373 61.6766 82.3732 61.7798C82.3091 61.8837 82.2562 61.9932 82.2139 62.1071C82.1716 62.2215 82.1405 62.3391 82.1212 62.4592C82.102 62.5799 82.0951 62.7012 82.0995 62.8225C82.1044 62.9444 82.1206 63.0645 82.1486 63.1833C82.1772 63.3021 82.2164 63.4166 82.2674 63.5273C82.3184 63.6381 82.3794 63.7432 82.451 63.8415C85.1248 67.4802 88.5775 68.3344 91.2755 66.1439C94.6175 63.2356 92.4264 60.3023 90.8301 58.1735C89.0975 55.8468 86.1394 43.3213 85.7431 37.7398C85.7624 37.5052 85.824 37.2825 85.9292 37.0716C89.2338 32.4799 95.0754 24.8808 95.137 24.8062Z" fill="#1254A0"/>
<path d="M80.1597 13.2587C80.2269 13.1573 80.2842 13.0497 80.3302 12.9371C80.3769 12.8245 80.4117 12.7082 80.4353 12.5881C80.4583 12.4687 80.4702 12.348 80.4695 12.226C80.4695 12.1041 80.4571 11.9834 80.4328 11.864C80.4086 11.7445 80.3731 11.6282 80.3265 11.5156C80.2792 11.403 80.2219 11.2966 80.1535 11.1952C80.0857 11.0938 80.0086 11.0005 79.9221 10.9146C79.8356 10.8282 79.7417 10.7516 79.6397 10.6845C79.5383 10.6166 79.4312 10.56 79.318 10.5134C79.2054 10.4673 79.0891 10.4325 78.9696 10.4089C78.8502 10.3852 78.7289 10.374 78.607 10.374C78.485 10.3746 78.3643 10.3871 78.2449 10.4113C78.1254 10.435 78.0097 10.4705 77.8971 10.5177C77.7845 10.565 77.6775 10.6222 77.5767 10.6901C77.4753 10.7585 77.3814 10.8356 77.2956 10.9221C77.2097 11.0086 77.1332 11.1025 77.0654 11.2039L68.4019 24.3111C67.6044 25.1155 66.7384 25.8383 65.804 26.4791C64.869 27.1205 63.8829 27.668 62.8453 28.1227C60.6119 29.3931 58.5981 30.9483 56.8052 32.7885C56.7225 32.8744 56.6485 32.9677 56.5838 33.0678C56.5184 33.168 56.4637 33.2738 56.4195 33.3845C56.3747 33.4952 56.3411 33.6091 56.3188 33.726C56.2964 33.8436 56.2852 33.9618 56.2852 34.0813C56.2852 34.2007 56.297 34.3189 56.32 34.4359C56.343 34.5528 56.3772 34.6667 56.422 34.7774C56.4674 34.8881 56.5222 34.9933 56.5875 35.0928C56.6528 35.193 56.7275 35.2857 56.8102 35.3715C56.8936 35.4567 56.9844 35.5339 57.0821 35.6017C57.1804 35.6701 57.2843 35.728 57.3931 35.7765C57.5026 35.8244 57.6152 35.8617 57.7316 35.8879C57.8485 35.9146 57.9661 35.9295 58.0855 35.9326C58.205 35.9364 58.3232 35.9289 58.4414 35.9096C58.559 35.8903 58.674 35.8599 58.786 35.8182C58.898 35.7771 59.0044 35.7255 59.1064 35.6633C59.2084 35.6011 59.3036 35.5301 59.392 35.4499C60.895 33.8965 62.5784 32.572 64.4416 31.4765C65.6945 30.906 66.8827 30.2236 68.0063 29.4285C69.1304 28.6335 70.17 27.7401 71.1249 26.7491C71.1977 26.672 71.2636 26.5892 71.3227 26.5015L80.1597 13.2587Z" fill="#1254A0"/>
<path d="M28.4663 23.9026C28.4663 23.9642 34.1841 32.2936 37.5628 36.774C37.8975 37.1379 38.2751 37.4502 38.6956 37.7109C39.1162 37.9716 39.5635 38.1706 40.0381 38.3087C45.2116 39.5467 59.1598 41.0441 63.1326 39.6948C65.2863 38.9651 65.8058 39.0391 65.8929 39.064C67.6006 41.242 63.7018 42.554 61.3503 42.8756C58.5781 43.3584 52.3154 44.4352 54.5313 47.7523C54.6116 47.8438 54.7006 47.9265 54.7976 48.0005C54.8953 48.0746 54.9986 48.138 55.108 48.1921C55.2175 48.2456 55.3314 48.2879 55.4496 48.319C55.5678 48.3502 55.6878 48.3694 55.8098 48.3769C55.9317 48.3844 56.053 48.38 56.1737 48.3632C56.295 48.347 56.4132 48.319 56.5283 48.2792C56.644 48.2394 56.7541 48.1884 56.8599 48.1268C56.965 48.0652 57.0633 47.9937 57.1548 47.9128C57.8727 47.282 60.1627 46.8608 62.0066 46.5268C66.0783 46.0067 68.7148 44.0514 69.432 42.4177C69.6087 42.098 69.7468 41.7627 69.8464 41.4118C69.9465 41.0603 70.0056 40.7026 70.0237 40.338C70.0417 39.9735 70.0187 39.6114 69.9546 39.2525C69.8899 38.8929 69.786 38.5451 69.6429 38.2098C67.9097 34.1381 64.4446 35.3139 61.9201 36.1799C59.1723 37.1081 46.35 36.0561 40.8798 34.7074C40.6621 34.6159 40.468 34.4878 40.2982 34.3235C36.932 29.794 31.5234 21.9473 31.4612 21.8111C31.3971 21.701 31.3218 21.599 31.2366 21.505C31.1513 21.4105 31.0568 21.3259 30.9541 21.2506C30.8509 21.1759 30.742 21.1118 30.6257 21.0596C30.51 21.0073 30.3899 20.9669 30.2655 20.9389C30.141 20.9115 30.0154 20.8966 29.8878 20.8947C29.7609 20.8929 29.6346 20.9041 29.5096 20.9277C29.3846 20.952 29.2632 20.9887 29.1457 21.0372C29.0287 21.0863 28.9174 21.1467 28.8122 21.2188C28.7071 21.2904 28.6107 21.3725 28.5223 21.464C28.434 21.556 28.3562 21.6556 28.2884 21.7638C28.2206 21.8714 28.1646 21.9853 28.1204 22.1041C28.0756 22.2236 28.0439 22.3461 28.0253 22.4724C28.006 22.5981 27.9998 22.7243 28.0066 22.8513C28.0134 22.9788 28.0333 23.1038 28.0657 23.227C28.0987 23.3496 28.1435 23.4684 28.2007 23.5822C28.2573 23.6961 28.3251 23.8031 28.4041 23.9026H28.4663Z" fill="#1254A0"/>
<path d="M27.0172 43.9026L17.1164 31.4275C17.0405 31.3317 16.9565 31.244 16.8638 31.1649C16.7705 31.0859 16.6709 31.0163 16.5646 30.9565C16.4582 30.8968 16.3468 30.8483 16.2305 30.811C16.1148 30.773 15.9959 30.7469 15.8746 30.7326C15.7533 30.7183 15.632 30.7158 15.5101 30.7257C15.3888 30.7351 15.2693 30.7568 15.1517 30.7898C15.0342 30.8228 14.9209 30.867 14.8127 30.9223C14.7038 30.9777 14.6012 31.0436 14.5054 31.1189C14.4096 31.1948 14.3219 31.2788 14.2429 31.3715C14.1638 31.4642 14.0942 31.5637 14.0344 31.6701C13.9747 31.7771 13.9262 31.8878 13.8883 32.0042C13.8503 32.1199 13.8242 32.2387 13.8099 32.36C13.7956 32.4813 13.7931 32.6026 13.8024 32.7246C13.8124 32.8459 13.8335 32.9653 13.8665 33.0829C13.8994 33.2005 13.9436 33.3137 13.999 33.4226C14.0544 33.5314 14.1197 33.6335 14.1956 33.7293L23.9726 46.1061C24.4902 47.1114 24.9107 48.1565 25.233 49.2402C25.5552 50.3246 25.7748 51.4288 25.8912 52.5542C26.3086 54.7527 27.0178 56.8523 28.02 58.8537C28.0953 59.0135 28.1917 59.1597 28.3081 59.2922C28.425 59.4248 28.5575 59.5386 28.7068 59.6338C28.8555 59.729 29.0148 59.8018 29.184 59.8521C29.3532 59.9025 29.5261 59.9287 29.7028 59.9305C29.7806 59.9305 29.8577 59.9256 29.9349 59.9156C30.012 59.9056 30.0879 59.8913 30.1632 59.872C30.2385 59.8528 30.3119 59.8291 30.384 59.8005C30.4562 59.7719 30.5265 59.7389 30.5943 59.7016C30.6621 59.6643 30.7274 59.6226 30.7903 59.5772C30.8531 59.5318 30.9128 59.4826 30.9701 59.4297C31.0267 59.3769 31.0795 59.3202 31.1293 59.2605C31.1785 59.2008 31.2245 59.1386 31.2662 59.0733C31.3079 59.0073 31.3452 58.9401 31.3788 58.8698C31.4117 58.7995 31.4404 58.728 31.4646 58.654C31.4889 58.5806 31.5088 58.5053 31.5237 58.4294C31.5387 58.3529 31.5486 58.2763 31.5536 58.1992C31.5592 58.1214 31.5592 58.0443 31.5548 57.9665C31.5505 57.8894 31.5411 57.8123 31.5268 57.7357C31.5125 57.6598 31.4939 57.5846 31.4702 57.5105C31.4466 57.4365 31.4186 57.3643 31.3862 57.294C30.5539 55.6318 29.9479 53.8911 29.5666 52.0715C29.4322 50.6356 29.1498 49.2297 28.7205 47.8536C28.2906 46.4769 27.7233 45.1605 27.0172 43.9026Z" fill="#1254A0"/>
<path d="M25.6785 79.4355C26.1283 79.2289 26.542 78.9664 26.9202 78.6473C27.2984 78.3275 27.6269 77.9636 27.9062 77.5542C30.7157 73.0371 36.4086 60.2273 36.347 56.0194C36.2269 55.0601 36.3134 54.1195 36.6064 53.1975C38.9455 52.3066 39.2553 55.4253 38.9455 57.8882C38.4877 61.3415 37.7082 65.3143 40.0099 67.1458C41.8296 68.6432 44.3541 67.8021 45.1834 67.5296L47.176 66.849C47.2917 66.808 47.4018 66.7569 47.507 66.6941C47.6121 66.6319 47.7104 66.5597 47.8018 66.4782C47.8927 66.3967 47.9748 66.3065 48.0482 66.2089C48.1216 66.1112 48.1851 66.0067 48.2379 65.8966C48.2902 65.7865 48.3319 65.672 48.3624 65.5532C48.3928 65.435 48.4115 65.3143 48.4177 65.1923C48.4246 65.0698 48.419 64.9485 48.4015 64.8272C48.3841 64.7065 48.3555 64.5877 48.3151 64.4726C48.274 64.3575 48.2224 64.2467 48.1602 64.1416C48.098 64.0365 48.0258 63.9382 47.9443 63.8473C47.8628 63.7559 47.7726 63.6738 47.6749 63.6004C47.5766 63.527 47.4727 63.4641 47.3626 63.4112C47.2519 63.3584 47.1374 63.3167 47.0192 63.2862C46.9004 63.2557 46.7803 63.2377 46.6584 63.2308C46.5358 63.224 46.4145 63.2296 46.2932 63.247C46.1719 63.2644 46.0537 63.293 45.9386 63.3341L43.946 64.0022C43.4297 64.2387 42.8897 64.3295 42.3248 64.2747C41.7923 63.4703 42.3864 60.0046 42.5842 58.3709C43.3146 52.851 41.0128 49.1134 36.9287 49.3112C32.5098 49.695 32.5596 53.3586 32.6087 56.0318C32.6087 58.9277 27.6586 70.7969 24.713 75.5373C24.5587 75.7159 24.3777 75.8608 24.168 75.9703C18.8216 77.7776 9.63809 80.4756 9.53917 80.4999C9.42222 80.5347 9.30961 80.5801 9.20199 80.6368C9.09374 80.6934 8.99234 80.7606 8.89716 80.8371C8.8026 80.9136 8.71613 80.9988 8.63774 81.0928C8.55998 81.1861 8.49154 81.2869 8.43307 81.3939C8.37459 81.5015 8.32731 81.6128 8.29123 81.7298C8.25514 81.8461 8.23026 81.965 8.2172 82.0863C8.20475 82.2076 8.20351 82.3289 8.21471 82.4502C8.22591 82.5721 8.2483 82.691 8.28314 82.8085C8.31735 82.9255 8.36339 83.0381 8.42 83.1457C8.47661 83.254 8.54318 83.3554 8.62032 83.4505C8.69684 83.5451 8.78207 83.6316 8.87601 83.71C8.96932 83.7877 9.0701 83.8562 9.17711 83.9146C9.28411 83.9725 9.39609 84.0198 9.51242 84.0565C9.62876 84.0926 9.7482 84.1174 9.86951 84.1299C9.99082 84.1429 10.1121 84.1442 10.2334 84.133C10.3548 84.1218 10.4742 84.0988 10.5912 84.0646C10.5912 84.0646 20.3812 81.2178 25.6785 79.4355Z" fill="#1254A0"/>
<path d="M40.666 91.713C39.8697 91.7485 39.0778 91.7074 38.2895 91.5892C36.9327 91.3055 35.561 91.1519 34.1749 91.1289C32.7883 91.1065 31.4128 91.2141 30.0466 91.453C29.9421 91.4704 29.8388 91.4953 29.7374 91.527L14.8859 97.0719C14.7832 97.121 14.6868 97.1795 14.5948 97.2467C14.5033 97.3132 14.4187 97.3885 14.3409 97.4712C14.2632 97.5534 14.1935 97.6423 14.1319 97.7381C14.0703 97.8333 14.0181 97.9335 13.9751 98.0386C13.9322 98.1437 13.8986 98.2514 13.8756 98.3627C13.852 98.4735 13.8395 98.5861 13.8364 98.6993C13.8339 98.8131 13.8414 98.9257 13.8594 99.0377C13.8775 99.1497 13.9055 99.2592 13.9434 99.3662C13.9814 99.4732 14.0286 99.5758 14.0859 99.6741C14.1425 99.7724 14.2078 99.8645 14.2818 99.951C14.3552 100.037 14.4367 100.116 14.5251 100.187C14.6128 100.258 14.7067 100.321 14.8069 100.375C14.9064 100.429 15.0103 100.474 15.1186 100.509C15.2262 100.544 15.3363 100.569 15.4489 100.584C15.5615 100.599 15.6741 100.604 15.788 100.598C15.9012 100.592 16.0132 100.576 16.1233 100.549L30.8883 95.0668C32.0063 94.8845 33.131 94.8074 34.2633 94.8366C35.3949 94.8659 36.5147 95.0002 37.6214 95.2404C38.6466 95.404 39.6781 95.4656 40.7151 95.4258C40.8371 95.4239 40.9578 95.4102 41.0766 95.3847C41.196 95.3592 41.3111 95.3225 41.4231 95.2746C41.5351 95.2261 41.6415 95.1676 41.7416 95.0985C41.8418 95.0295 41.9345 94.9511 42.0191 94.864C42.1043 94.7763 42.1796 94.6817 42.2461 94.5797C42.3121 94.477 42.3681 94.3694 42.4129 94.2562C42.4583 94.143 42.4919 94.0266 42.5143 93.9072C42.536 93.7871 42.5466 93.6664 42.5448 93.5445C42.5429 93.4226 42.5298 93.3025 42.5043 93.1831C42.4788 93.0642 42.4421 92.9485 42.3942 92.8366C42.3463 92.7246 42.2878 92.6182 42.2188 92.518C42.1497 92.4179 42.0713 92.3252 41.9842 92.24C41.8971 92.1547 41.8026 92.0794 41.7006 92.0129C41.5979 91.9463 41.4903 91.8903 41.3777 91.8455C41.2645 91.8001 41.1481 91.7665 41.0281 91.7441C40.9086 91.7217 40.7879 91.7112 40.666 91.713Z" fill="#1254A0"/>
<mask id="mask0_9313_10018" style="mask-type:luminance" maskUnits="userSpaceOnUse" x="34" y="47" width="48" height="75">
<path d="M34.3984 47.2559H81.6984V121.45H34.3984V47.2559Z" fill="white"/>
</mask>
<g mask="url(#mask0_9313_10018)">
<path d="M79.8489 54.6826C79.7599 54.5918 79.6666 54.5059 79.5683 54.4244C79.4706 54.3435 79.3692 54.2676 79.2635 54.1967C79.1577 54.1258 79.0488 54.0605 78.9369 54.0007C78.8243 53.941 78.7092 53.8875 78.5916 53.8396C78.4734 53.7917 78.354 53.75 78.2314 53.7146C78.1095 53.6791 77.9857 53.6505 77.8606 53.6275C77.7356 53.6045 77.6099 53.5883 77.483 53.5783C77.3561 53.5684 77.2292 53.5653 77.1023 53.5684C76.9754 53.5715 76.8485 53.5814 76.7228 53.5976C76.5965 53.6138 76.4715 53.6362 76.3477 53.6654C76.2239 53.6941 76.1019 53.7295 75.9819 53.7712C75.8618 53.8129 75.7442 53.8602 75.6285 53.9143C75.5134 53.9678 75.4014 54.0269 75.2919 54.0922C75.1831 54.1575 75.0773 54.2278 74.9753 54.3043C74.8733 54.3802 74.7756 54.4611 74.6823 54.547C74.5883 54.6334 74.4994 54.7236 74.4154 54.8188C74.2176 52.0592 72.8682 49.287 69.8236 49.3238C69.6239 49.325 69.4255 49.3406 69.2283 49.3698C69.0311 49.3997 68.8363 49.4432 68.6454 49.5004C68.4544 49.5583 68.2684 49.6292 68.0873 49.7132C67.9063 49.7978 67.7321 49.8942 67.5654 50.0031C67.398 50.1126 67.24 50.2333 67.0901 50.3652C66.9402 50.497 66.8008 50.6389 66.6714 50.7907C66.542 50.9431 66.4238 51.1036 66.3174 51.2722C66.2111 51.4414 66.1177 51.6168 66.0362 51.7991C65.653 49.3238 64.0312 47.3685 61.4569 47.4058C58.3383 47.4058 57.2365 50.3882 57.2365 53.4079C57.1445 53.1926 57.035 52.9855 56.9093 52.7876C56.7836 52.5892 56.6437 52.4026 56.4881 52.2265C56.3326 52.0511 56.1647 51.8887 55.983 51.7394C55.802 51.5907 55.6104 51.457 55.4076 51.3388C55.2054 51.2199 54.9945 51.1185 54.7761 51.0339C54.5571 50.9487 54.3332 50.8815 54.1036 50.8324C53.8747 50.7832 53.6426 50.7527 53.4081 50.7403C53.1742 50.7285 52.9403 50.7347 52.707 50.7596C52.4395 50.7776 52.1763 50.823 51.9182 50.8964C51.66 50.9692 51.4118 51.0681 51.1747 51.1926C50.9371 51.3176 50.7144 51.465 50.5078 51.6361C50.3013 51.8072 50.114 51.9976 49.9473 52.2078C48.2888 54.2129 48.7093 57.5791 49.0067 60.549C49.1672 62.1833 49.3283 63.3958 49.6251 65.4998C49.9224 67.6037 50.2938 70.2278 50.529 72.7398C50.8382 75.958 50.8257 78.8415 50.8506 81.5395C50.9153 82.1069 50.8326 82.6512 50.603 83.1732C49.6748 83.4332 46.568 81.812 45.0706 81.1065C40.0583 78.7058 35.7757 79.7329 34.7119 83.6808C33.7091 88.0001 37.1867 89.077 39.7609 89.8689C42.5337 90.7355 52.2864 99.1147 55.8505 103.409C55.9693 103.613 56.0477 103.832 56.0856 104.065C56.0856 109.696 55.8878 119.276 55.8754 119.375C55.8723 119.497 55.881 119.617 55.9015 119.737C55.922 119.858 55.9544 119.975 55.9979 120.088C56.0421 120.202 56.0962 120.31 56.1615 120.414C56.2262 120.517 56.3009 120.613 56.3849 120.701C56.4689 120.789 56.5603 120.868 56.6599 120.939C56.7594 121.01 56.8645 121.069 56.9759 121.119C57.0872 121.168 57.2023 121.207 57.3211 121.234C57.44 121.261 57.5607 121.276 57.6826 121.279C57.8045 121.282 57.9252 121.273 58.0453 121.253C58.1653 121.232 58.2823 121.201 58.3962 121.157C58.51 121.114 58.6182 121.059 58.7215 120.994C58.8248 120.929 58.9206 120.855 59.0089 120.771C59.0979 120.687 59.1769 120.595 59.2472 120.496C59.3181 120.396 59.3778 120.291 59.4276 120.18C59.4774 120.068 59.5159 119.953 59.5427 119.835C59.5701 119.716 59.585 119.596 59.5881 119.474C59.5881 119.387 59.8855 109.337 59.7866 103.718C59.7399 103.23 59.6285 102.756 59.4519 102.298C59.2752 101.839 59.04 101.414 58.747 101.02C55.3186 96.936 44.8852 87.5671 40.8876 86.3298C38.709 85.6485 38.3257 85.2896 38.276 85.2031C38.2505 84.9711 38.2754 84.744 38.3506 84.5225C38.8576 82.9262 41.5184 83.5203 43.4992 84.5225C46.6551 86.0324 50.2316 87.9634 52.633 86.3665C55.0337 84.7701 54.5509 82.2083 54.5882 80.8098C54.5901 75.5169 54.1776 70.257 53.3509 65.0295C53.0535 63.0001 52.9048 61.8486 52.7443 60.2523C52.5832 58.656 52.1993 55.1653 52.8557 54.6826C54.093 53.8042 54.7369 56.9477 55.2439 60.9702C56.5808 72.109 57.249 73.161 58.2394 73.8665C58.4789 74.0432 58.7445 74.1626 59.0363 74.2254C59.3274 74.2883 59.6186 74.2883 59.9104 74.2254C61.618 73.854 61.5807 72.0593 61.5565 70.6116C61.5565 69.5099 61.4569 68.1363 61.3704 66.4037C61.1104 62.5541 60.9375 55.5989 60.999 53.6306C60.999 51.8731 61.2964 51.391 61.4694 51.2797C61.6429 51.1677 62.4473 51.2797 62.5835 53.9771C62.5835 54.6334 63.3015 66.3539 63.462 69.7201C63.4589 70.3796 63.5043 71.0353 63.5982 71.6879C63.615 71.8888 63.6592 72.0835 63.7295 72.272C63.8004 72.4599 63.8956 72.6353 64.015 72.7977C64.1338 72.9594 64.2732 73.1025 64.4324 73.2263C64.5911 73.3495 64.764 73.449 64.9507 73.5249C65.1367 73.6002 65.3301 73.6494 65.5305 73.6711C65.7302 73.6935 65.9299 73.6879 66.1283 73.6543C66.3268 73.6214 66.5171 73.5616 66.6994 73.4758C66.8811 73.3899 67.0478 73.2811 67.1996 73.1486C68.0537 72.3933 68.3138 71.3662 68.6478 65.1408C68.809 62.0471 68.8339 59.7571 68.8457 58.0986C68.8457 57.3688 68.8457 56.7374 68.8457 56.2422C68.8457 54.4972 69.4398 53.1485 69.8485 53.1485C70.2566 53.1485 70.6778 53.1485 70.8383 56.4898C71.0118 60.2025 71.3086 66.6388 71.3335 68.4206C71.3335 72.2328 71.4946 73.2724 72.3855 74.0394C72.6163 74.2366 72.8775 74.3772 73.1687 74.4618C73.4605 74.5458 73.756 74.5663 74.0564 74.5222C75.7641 74.2746 75.9501 72.5918 76.0366 71.8739C76.1231 71.156 76.2718 67.381 76.334 64.584C76.3956 62.4925 76.334 58.7798 77.2248 57.4055C77.6703 58.4625 77.8681 59.5642 77.8189 60.7102C77.9427 63.0368 77.8189 66.3664 77.7449 70.6116C77.6211 75.1163 77.9919 80.1286 77.7449 84.4485C77.6783 86.359 77.4475 88.2496 77.0531 90.1196C76.6581 91.9903 76.1044 93.8125 75.3933 95.5873C74.7041 96.7905 74.1336 98.0477 73.6819 99.3591C73.2303 100.67 72.9055 102.012 72.7071 103.384C72.7015 103.492 72.7015 103.599 72.7071 103.706L73.3634 119.598C73.3684 119.719 73.3852 119.84 73.4138 119.958C73.4424 120.077 73.4822 120.191 73.5332 120.302C73.5843 120.412 73.6458 120.518 73.7174 120.616C73.7896 120.715 73.8704 120.805 73.96 120.888C74.0496 120.971 74.146 121.044 74.2505 121.107C74.3544 121.171 74.4639 121.224 74.5784 121.266C74.6929 121.308 74.8098 121.339 74.9305 121.358C75.0512 121.377 75.1719 121.384 75.2938 121.379C75.4157 121.374 75.5364 121.357 75.6546 121.329C75.7735 121.3 75.8879 121.26 75.9987 121.209C76.1094 121.158 76.2139 121.097 76.3128 121.025C76.4111 120.953 76.5019 120.873 76.5847 120.783C76.6674 120.693 76.7408 120.597 76.8043 120.493C76.8684 120.388 76.9212 120.279 76.9629 120.165C77.0052 120.05 77.0357 119.933 77.055 119.812C77.0743 119.692 77.0811 119.571 77.0761 119.449L76.4204 103.706C76.5679 102.574 76.8205 101.466 77.1788 100.381C77.5365 99.2963 77.9938 98.2555 78.5493 97.2577C79.6629 95.3024 81.0247 90.5744 81.383 84.6214C81.6804 80.0919 81.309 75.2028 81.383 70.6116C81.6804 61.1189 81.7917 56.7747 79.8489 54.6826Z" fill="#1254A0"/>
</g>
</svg>
