<svg width="129" height="130" viewBox="0 0 129 130" fill="none" xmlns="http://www.w3.org/2000/svg">
<mask id="mask0_9313_8214" style="mask-type:luminance" maskUnits="userSpaceOnUse" x="86" y="28" width="35" height="33">
<path d="M86.957 28.4863H120.159V60.816H86.957V28.4863Z" fill="white"/>
</mask>
<g mask="url(#mask0_9313_8214)">
<path d="M115.157 28.5107H92.049C89.2819 28.5107 87.0703 30.7335 87.0703 33.454V43.0861L96.2862 43.1676C99.4701 43.2136 102.445 44.464 104.657 46.7677C106.879 49.0253 108.048 52.0009 108.048 55.1848C108.002 57.1992 107.505 59.0742 106.578 60.7533H115.157C117.924 60.7533 120.135 58.5305 120.135 55.7752V33.454C120.135 30.7217 117.912 28.5107 115.157 28.5107Z" fill="#1254A0"/>
</g>
<path d="M40.9678 84.0578C40.3774 83.5601 39.7989 83.0506 39.3354 82.6338L37.0317 86.4429C36.9042 86.6974 36.661 86.8598 36.3605 86.8598L17.1884 89.1634C13.5068 89.6269 10.8672 92.9726 11.33 96.6194C11.7468 100.347 15.0925 102.941 18.786 102.524L37.958 100.22C42.357 99.7218 46.247 97.2446 48.5513 93.4354L49.8017 91.3402C47.3357 89.291 44.5219 86.9873 42.2182 85.065L40.9678 84.0578Z" fill="#1254A0"/>
<mask id="mask1_9313_8214" style="mask-type:luminance" maskUnits="userSpaceOnUse" x="39" y="36" width="63" height="84">
<path d="M39.3359 36.9277H101.766V119.527H39.3359V36.9277Z" fill="white"/>
</mask>
<g mask="url(#mask1_9313_8214)">
<path d="M96.2024 49.4546L83.1662 49.3152C81.9736 49.304 80.8047 48.8642 79.8784 48.0996C69.2043 39.2433 67.7566 38.9882 66.2287 38.7108L57.1752 37.1014C53.343 36.4183 49.5805 38.6411 48.3189 42.3227L42.1134 60.5225C39.2536 68.3946 37.7487 72.9795 41.905 76.5915C42.7498 77.3324 44.3362 78.6637 46.2348 80.2501C51.9539 84.9849 60.4749 91.9892 60.4749 91.9892C62.3157 93.5289 63.8554 95.4973 64.8396 97.6971L73.0594 115.537C74.1824 118.015 76.6714 119.462 79.2413 119.427C80.1676 119.416 81.0821 119.231 81.9506 118.826C85.3193 117.274 86.8012 113.268 85.2502 109.911L77.0652 92.0819C75.2244 88.0992 72.4572 84.4754 69.0879 81.6623L60.3703 74.4384L69.1228 53.7726C70.1648 54.6062 71.3574 55.5786 72.7353 56.7133C75.6294 59.1215 79.288 60.4646 83.0505 60.5106L96.0979 60.6494C99.1773 60.7072 101.724 58.1952 101.759 55.1157C101.771 52.0245 99.2931 49.4894 96.2024 49.4546Z" fill="#1254A0"/>
</g>
<path d="M62.4336 34.9132C69.125 36.4299 75.7704 32.227 77.2871 25.5356C78.8037 18.8436 74.6014 12.1982 67.9212 10.6815C61.2292 9.16546 54.5839 13.3678 53.0678 20.048C51.5393 26.7512 55.7416 33.3965 62.4336 34.9132Z" fill="#1254A0"/>
<path d="M30.5254 45.3789H38.41C40.262 45.3789 41.7556 43.8852 41.7556 42.0332C41.7556 40.1806 40.2501 38.6875 38.41 38.6875H30.5254C28.6734 38.6875 27.1797 40.1806 27.1797 42.0332C27.1797 43.8852 28.6734 45.3789 30.5254 45.3789Z" fill="#1254A0"/>
<path d="M22.0058 57.4189H34.0809C35.9336 57.4189 37.4272 55.9259 37.4272 54.0732C37.4272 52.2206 35.9217 50.7275 34.0809 50.7275H22.0058C20.1538 50.7275 18.6602 52.2206 18.6602 54.0732C18.6602 55.9259 20.1657 57.4189 22.0058 57.4189Z" fill="#1254A0"/>
<mask id="mask2_9313_8214" style="mask-type:luminance" maskUnits="userSpaceOnUse" x="10" y="62" width="24" height="8">
<path d="M10.1484 62.7275H33.1253V69.5757H10.1484V62.7275Z" fill="white"/>
</mask>
<g mask="url(#mask2_9313_8214)">
<path d="M29.7603 69.4479C31.613 69.4479 33.106 67.9542 33.106 66.1022C33.106 64.2495 31.6012 62.7559 29.7603 62.7559H13.4941C11.6421 62.7559 10.1484 64.2495 10.1484 66.1022C10.1484 67.9542 11.6533 69.4479 13.4941 69.4479H29.7603Z" fill="#1254A0"/>
</g>
</svg>
