<svg width="129" height="130" viewBox="0 0 129 130" fill="none" xmlns="http://www.w3.org/2000/svg">
<mask id="mask0_9313_4512" style="mask-type:luminance" maskUnits="userSpaceOnUse" x="54" y="40" width="67" height="49">
<path d="M54.7852 40.915H120.081V88.6636H54.7852V40.915Z" fill="white"/>
</mask>
<g mask="url(#mask0_9313_4512)">
<path d="M117.258 82.9813H110.382C111.606 82.1657 112.538 80.942 113.121 79.602H116.733C118.306 79.602 119.53 78.3783 119.53 76.8056V63.7544C119.53 62.9389 119.18 62.1811 118.598 61.6567L107.352 51.5188C106.828 51.0529 106.187 50.8196 105.488 50.8196H98.3213V43.7114C98.3213 42.1966 97.0397 40.915 95.5249 40.915H61.0907C59.518 40.915 58.2943 42.1966 58.2943 43.7114C58.2943 44.178 58.2943 44.6439 58.2943 45.1099C58.2943 45.5759 58.2943 46.0418 58.2943 46.5084C59.0514 46.5084 59.8091 46.5084 60.5669 46.5084C60.6247 46.5084 60.6247 46.5084 60.6832 46.5084C60.9159 46.5084 61.0907 46.5084 61.324 46.5084C61.9069 46.5084 62.4313 46.5084 63.0136 46.5084C64.47 46.5084 65.9854 46.5084 67.4418 46.5084C69.1899 46.5084 70.8795 46.5084 72.627 46.5084C74.4336 46.5084 76.2396 46.5084 78.104 46.5084C79.8522 46.5084 81.5997 46.5084 83.3478 46.5084C84.8626 46.5084 86.319 46.5084 87.8338 46.5084C88.9411 46.5084 89.99 46.5084 91.0967 46.5084C91.6212 46.5084 92.1456 46.5084 92.6701 46.5084H92.7279V74.0086H81.8914C80.7841 71.2122 78.104 69.2893 74.8996 69.2893C71.6951 69.2893 69.0151 71.2701 67.9077 74.0086C67.4418 74.0086 66.9173 74.0086 66.4514 74.0086C65.344 74.0086 64.2958 74.0086 63.1884 74.0086C62.3144 74.0086 61.3824 74.0086 60.5084 74.0086C60.0424 74.0086 59.5759 74.0086 59.1684 74.0086C58.9936 74.0086 58.2943 73.8923 58.2943 74.2419C58.2943 75.116 58.2943 75.99 58.2943 76.8635C58.2943 78.4368 59.5759 79.6605 61.0907 79.6605H67.9077C68.4906 81.0589 69.4226 82.2242 70.6462 83.0397H57.7114C56.3714 83.0397 55.1483 83.9138 54.8565 85.2538C54.5069 87.0598 55.8469 88.6331 57.5951 88.6331H117.141C118.481 88.6331 119.704 87.759 119.995 86.419C120.404 84.5546 119.005 82.9813 117.258 82.9813ZM98.3213 56.3551H104.323L113.878 64.9781V74.0086H113.062C111.955 71.2122 109.217 69.2893 106.071 69.2893C102.924 69.2893 100.186 71.2701 99.079 74.0086H98.3213V56.3551ZM75.5403 78.6116C74.084 79.0775 72.744 77.8539 73.0351 76.3975C73.1515 75.6404 73.7922 74.999 74.55 74.8827C76.0063 74.5915 77.23 75.9315 76.764 77.3879C76.5892 77.9708 76.1233 78.4368 75.5403 78.6116ZM79.2108 82.9813C80.4345 82.1657 81.367 80.942 81.8914 79.602H99.1375C99.6613 81.0005 100.652 82.1657 101.818 82.9813H79.2108ZM105.546 78.6701C104.964 78.4952 104.498 78.0287 104.323 77.4464C103.857 76.1064 104.847 74.8827 106.129 74.8827C107.178 74.8827 108.052 75.7567 108.052 76.8056C108.052 78.0287 106.828 79.0197 105.546 78.6701Z" fill="#1254A0"/>
</g>
<mask id="mask1_9313_4512" style="mask-type:luminance" maskUnits="userSpaceOnUse" x="8" y="63" width="33" height="7">
<path d="M8.52344 63.9785H40.6104V69.7118H8.52344V63.9785Z" fill="white"/>
</mask>
<g mask="url(#mask1_9313_4512)">
<path d="M40.5806 66.7843C40.5806 68.3576 39.3569 69.5807 37.7836 69.5807H11.3901C9.87529 69.5807 8.59375 68.2991 8.59375 66.7843C8.59375 65.2695 9.87529 63.9873 11.3901 63.9873H37.7836C39.3569 63.9873 40.5806 65.211 40.5806 66.7843Z" fill="#1254A0"/>
</g>
<path d="M50.8956 76.8058C50.8956 78.3785 49.6719 79.6021 48.0986 79.6021H33.1251C31.6103 79.6021 30.3281 78.3785 30.3281 76.8058C30.3281 75.291 31.6103 74.0088 33.1251 74.0088H48.0407C49.6134 74.0088 50.8956 75.2325 50.8956 76.8058Z" fill="#1254A0"/>
<path d="M39.5323 55.2475C39.5323 56.8208 38.3086 58.0445 36.7353 58.0445H21.7618C20.247 58.0445 18.9648 56.8208 18.9648 55.2475C18.9648 53.7327 20.247 52.4512 21.7618 52.4512H36.6775C38.2501 52.4512 39.5323 53.6742 39.5323 55.2475Z" fill="#1254A0"/>
<path d="M50.0781 44.2941C50.0781 45.8674 48.7959 47.0904 47.2811 47.0904H34.9292C33.4144 47.0904 32.1328 45.8674 32.1328 44.2941C32.1328 42.7208 33.4144 41.4971 34.9292 41.4971H47.2811C48.8544 41.4971 50.0781 42.7208 50.0781 44.2941Z" fill="#1254A0"/>
<path d="M44.8928 54.7816C45.6505 53.7328 46.6409 52.8587 47.8061 52.2764C48.9713 51.6935 50.2528 51.4023 51.5935 51.4023C52.7587 51.4023 53.7491 51.635 54.6231 52.0431C55.4972 52.4512 56.138 53.092 56.6039 53.8491C57.0699 54.6068 57.361 55.5387 57.361 56.5876H53.1662C52.9913 56.0632 52.7587 55.6557 52.3506 55.4224C51.9431 55.1312 51.4765 55.0143 50.8942 55.0143C50.0202 55.0143 49.2046 55.3061 48.5632 55.9468C47.9224 56.5876 47.5149 57.4617 47.3401 58.5105C47.2817 58.8017 47.2817 59.0928 47.2817 59.3846C47.2817 60.2002 47.5149 60.8409 47.9224 61.3069C48.3305 61.7735 48.9713 62.0061 49.6705 62.0061C50.2528 62.0061 50.7773 61.8898 51.3017 61.5987C51.8261 61.3069 52.2342 60.8994 52.5254 60.4328H56.7203C56.0795 62.0061 55.0891 63.2883 53.7491 64.2202C52.4091 65.1528 50.8357 65.6187 49.0876 65.6187C47.8646 65.6187 46.8157 65.3854 45.9416 64.9195C45.0676 64.4535 44.3683 63.8121 43.9024 62.9387C43.4364 62.0646 43.2031 61.1321 43.2031 60.0254C43.2031 59.5009 43.2616 58.9765 43.3195 58.5105C43.6112 57.0536 44.1357 55.8305 44.8928 54.7816Z" fill="#1254A0"/>
<path d="M61.3236 64.8611C60.4495 64.3952 59.7503 63.6959 59.2259 62.8219C58.7599 61.9478 58.4688 60.8995 58.4688 59.7922C58.4688 58.161 58.8184 56.6462 59.5176 55.364C60.2169 54.0825 61.2073 53.0921 62.4309 52.3344C63.654 51.6351 65.111 51.2861 66.7421 51.2861C67.9658 51.2861 69.0147 51.5188 69.8881 51.9848C70.8207 52.4513 71.5199 53.15 71.9859 54.024C72.4518 54.8981 72.7436 55.947 72.7436 57.0537C72.7436 58.6855 72.394 60.1418 71.6947 61.4818C70.9955 62.764 70.0051 63.8122 68.7814 64.5115C67.4999 65.2107 66.1014 65.6188 64.4696 65.6188C63.2465 65.6188 62.1977 65.3856 61.3236 64.8611ZM67.0918 61.3655C67.6747 60.9574 68.1406 60.433 68.4318 59.7343C68.7229 59.0351 68.8977 58.3358 68.8977 57.5203C68.8977 56.6462 68.6651 56.0054 68.1985 55.5389C67.7325 55.0729 67.0918 54.8396 66.2177 54.8396C65.4606 54.8396 64.7614 55.0144 64.1784 55.4225C63.5962 55.8306 63.1296 56.3551 62.8384 57.0537C62.5473 57.7529 62.3725 58.4522 62.3725 59.2678C62.3725 60.084 62.6051 60.7826 63.0717 61.2492C63.5377 61.7151 64.1784 61.9478 65.0525 61.9478C65.8102 62.0063 66.451 61.7736 67.0918 61.3655Z" fill="#1254A0"/>
<path d="M84.6311 52.1592C85.5636 52.6258 86.2628 53.2666 86.7873 54.0821C87.2532 54.8977 87.5444 55.8881 87.5444 56.9955C87.5444 57.5199 87.4859 57.9859 87.4281 58.4518C87.1948 59.7918 86.6703 61.0155 85.9132 62.0644C85.0976 63.1133 84.1066 63.9288 82.9414 64.5696C81.7762 65.2104 80.3777 65.4437 78.9214 65.4437H73.2695L75.7754 51.46H81.3103C82.5339 51.5184 83.6991 51.6933 84.6311 52.1592ZM81.951 61.1319C82.7088 60.4911 83.1747 59.617 83.408 58.5103C83.4659 58.2191 83.4659 57.9859 83.4659 57.6362C83.4659 56.7622 83.1747 56.0629 82.6503 55.597C82.1258 55.131 81.3687 54.8977 80.3777 54.8977H79.0377L77.7562 62.1222H79.0962C80.2614 62.0644 81.1939 61.7732 81.951 61.1319Z" fill="#1254A0"/>
</svg>
