<svg width="129" height="130" viewBox="0 0 129 130" fill="none" xmlns="http://www.w3.org/2000/svg">
<mask id="mask0_9313_7663" style="mask-type:luminance" maskUnits="userSpaceOnUse" x="11" y="11" width="111" height="108">
<path d="M11.0664 11.9238H121.075V118.15H11.0664V11.9238Z" fill="white"/>
</mask>
<g mask="url(#mask0_9313_7663)">
<path d="M111.667 91.5723V102.637C111.667 109.044 106.469 114.22 100.084 114.22H28.6888C28.84 113.444 28.8182 112.688 28.7106 111.891H100.084C105.196 111.891 109.337 107.728 109.337 102.637V91.5723C109.337 86.4604 105.196 82.3191 100.084 82.3191H86.3873V79.9893H100.084C106.469 79.9893 111.667 85.1876 111.667 91.5723ZM31.6009 79.9675C32.1614 80.6792 32.6579 81.4773 33.0678 82.3191H40.1853V79.9893H32.0538C31.9026 79.9893 31.7521 79.9893 31.6009 79.9675ZM21.6354 75.1144C22.4553 75.1144 23.2535 75.2009 24.0299 75.3521C23.2317 73.9499 22.8006 72.3753 22.8006 70.7361V58.1826C22.8006 53.0707 26.9631 48.9294 32.0538 48.9294H54.9604L58.9941 46.5996H32.0538C25.6691 46.5996 20.4708 51.7979 20.4708 58.1826V70.7143C20.4708 72.2241 20.7731 73.7128 21.3554 75.0933H21.6354V75.1144ZM67.5574 46.5996L71.5905 48.9294H103.449C103.298 48.1741 103.319 47.3548 103.427 46.5996H67.5574ZM25.6473 110.014C23.3399 114.501 23.3829 114.349 21.6354 117.542C19.9103 114.328 19.9103 114.479 17.624 109.971C15.0572 113.12 17.5376 118.254 21.6354 118.124C25.7338 118.232 28.193 113.141 25.6473 110.014ZM121.071 22.5713C120.295 29.9265 113.63 41.7247 110.502 47.9583C107.375 41.7036 100.774 30.0559 99.9331 22.5713C100.472 8.55091 120.532 8.52914 121.071 22.5713ZM114.514 22.5713C114.385 17.2654 106.619 17.2654 106.469 22.5713C106.619 27.8555 114.406 27.8343 114.514 22.5713ZM30.5657 94.182C28.6459 99.5097 23.9652 108.871 21.6354 113.185C18.4863 106.887 11.9293 95.3037 11.0664 87.7762C11.0664 81.9302 15.7901 77.2066 21.6354 77.2066C27.4813 77.2066 32.205 81.9302 32.205 87.7762C32.205 89.2425 31.5574 91.5505 30.5657 94.182ZM25.6473 87.7762C25.5179 82.4696 17.7534 82.4696 17.6023 87.7762C17.7534 93.0821 25.5397 93.0603 25.6473 87.7762ZM112.357 48.9723L110.502 52.3802C108.733 49.0799 108.841 49.3823 106.469 44.7444C103.945 47.8936 106.447 52.9625 110.502 52.8331C114.557 52.9625 117.059 47.9153 114.557 44.7662C113.263 47.2683 112.357 48.9723 112.357 48.9723ZM49.8056 61.6769L69.2178 50.2451C67.7515 49.3823 64.7747 47.6783 63.2866 46.8154C61.1727 48.0229 46.1601 56.7156 43.6797 58.139L49.8056 61.6769ZM50.992 73.3458L53.6235 74.9203V66.5729L50.992 65.0631V73.3458ZM74.3514 53.2213L71.5258 51.582L52.1136 63.0138L54.7663 64.5455L74.3514 53.2213ZM82.893 58.139L76.7024 54.5588L57.0961 65.8612L63.2866 69.4421L82.893 58.139ZM84.0582 60.1671L64.4512 71.4907V94.1173L84.0582 82.7931V60.1671ZM42.5151 60.1671V82.7931L62.1214 94.1173V71.4907L55.9744 67.9316V76.9913C55.9744 77.4007 55.7374 77.8107 55.3703 78.0047C55.0039 78.2206 54.551 78.1988 54.184 77.9836L49.2233 74.985C48.878 74.7692 48.6622 74.381 48.6622 73.9928V63.7255L42.5151 60.1671Z" fill="#1254A0"/>
</g>
</svg>
