<svg width="129" height="130" viewBox="0 0 129 130" fill="none" xmlns="http://www.w3.org/2000/svg">
<mask id="mask0_9313_9370" style="mask-type:luminance" maskUnits="userSpaceOnUse" x="5" y="76" width="113" height="49">
<path d="M5.69141 76.8545H117.692V124.194H5.69141V76.8545Z" fill="white"/>
</mask>
<g mask="url(#mask0_9313_9370)">
<path d="M109.084 78.8372C107.296 78.8372 105.58 79.3847 104.122 80.4198L91.1041 89.535C90.7421 89.7919 90.5019 90.1763 90.4273 90.6168C90.3526 91.0579 90.4534 91.5014 90.7128 91.866C91.0257 92.3077 91.5371 92.5708 92.079 92.5708C92.4274 92.5708 92.7614 92.4638 93.0457 92.2623L106.065 83.1478C106.954 82.517 107.999 82.1841 109.09 82.1841C110.791 82.1841 112.393 83.0091 113.374 84.3914C114.184 85.5317 114.501 86.9215 114.267 88.3038C114.032 89.6867 113.274 90.8943 112.134 91.7042L77.2181 116.368C76.8094 116.659 76.3639 116.888 75.8949 117.05C75.3518 117.238 74.7782 117.334 74.1928 117.334C74.0167 117.334 73.8407 117.325 73.6733 117.309L73.6086 117.3L73.5775 117.292L41.1179 109.029C41.0364 109.008 40.9742 108.994 40.9176 108.985C40.4833 108.919 40.0416 108.884 39.6037 108.884C37.822 108.884 36.1062 109.434 34.6424 110.474L32.2715 112.158L18.6331 92.9528L33.7223 82.1779C35.5189 80.9026 37.6235 80.2289 39.8077 80.2289C40.3477 80.2289 40.8939 80.2705 41.4252 80.352L41.5129 80.3713L78.5463 91.1188L78.5861 91.1313C81.3109 91.917 82.9384 94.7569 82.213 97.4618C81.8584 98.7863 80.9993 99.8905 79.7949 100.572C79.0029 101.02 78.1052 101.257 77.1982 101.257C76.7353 101.257 76.2706 101.196 75.8165 101.076L75.809 101.074C75.7966 101.071 75.7848 101.069 75.7705 101.065C75.7624 101.063 75.7518 101.06 75.7406 101.057L56.6314 96.4142C56.5088 96.3856 56.3819 96.3713 56.2544 96.3713C55.4742 96.3713 54.8048 96.9032 54.6269 97.6646C54.5174 98.1318 54.6145 98.6246 54.8926 99.0159C55.1283 99.3481 55.478 99.5832 55.8742 99.6753L74.976 104.316C74.9878 104.319 74.9997 104.321 75.0127 104.324C75.7331 104.512 76.4716 104.606 77.2075 104.606C78.6844 104.606 80.1501 104.219 81.4441 103.485C83.4367 102.357 84.8569 100.526 85.4473 98.3291C86.643 93.8704 83.9748 89.1953 79.4987 87.9094L42.466 77.1613L42.4473 77.1544C42.3453 77.1177 42.2495 77.0922 42.1549 77.076C41.3773 76.9435 40.586 76.877 39.8027 76.877C36.9261 76.877 34.1522 77.7666 31.7807 79.4506L16.6946 90.2224L14.9683 87.7906C14.6547 87.3495 14.144 87.0857 13.6015 87.0857C13.2537 87.0857 12.919 87.1927 12.6341 87.3949L6.4398 91.7776C6.42985 91.7845 6.42114 91.7901 6.41118 91.7982L6.36888 91.8287C5.9446 92.141 5.69141 92.6461 5.69141 93.1793C5.69141 94.1081 6.44727 94.8639 7.37607 94.8639C7.76178 94.8639 8.12446 94.737 8.42183 94.4994L8.4492 94.4788L13.2071 91.0946L32.269 117.938L27.867 121.073C27.7588 121.135 27.658 121.207 27.5659 121.29C27.2107 121.609 27.0073 122.066 27.0073 122.543C27.0073 123.471 27.7631 124.227 28.6925 124.227C29.049 124.227 29.3899 124.117 29.6773 123.909L35.5718 119.701C36.3252 119.166 36.5037 118.118 35.9693 117.365L34.21 114.889L36.5821 113.203C37.4723 112.57 38.5181 112.236 39.6055 112.236C39.8395 112.236 40.0771 112.252 40.3104 112.284L40.3875 112.298L72.9169 120.579L72.9436 120.585C72.9616 120.589 72.9828 120.592 72.9996 120.595L73.0481 120.604C73.0637 120.608 73.0755 120.61 73.0879 120.612L73.1402 120.62C73.483 120.662 73.8332 120.684 74.1816 120.684C75.1452 120.684 76.0908 120.525 76.9885 120.215C77.7593 119.948 78.4897 119.572 79.1578 119.098L114.075 94.4328C115.942 93.1071 117.181 91.1294 117.565 88.8637C117.949 86.5974 117.43 84.3205 116.103 82.4523C114.496 80.189 111.872 78.8372 109.084 78.8372Z" fill="#1254A0"/>
</g>
<path d="M76.0177 39.471C75.1424 38.7276 74.6509 37.7621 74.6335 36.7518C74.6155 35.7123 75.0982 34.7088 75.9916 33.9262C76.5384 33.4472 77.1947 33.0845 77.9176 32.8537V40.2412C77.1468 40.0794 76.47 39.8443 76.0177 39.471ZM81.3143 44.3403C82.6369 44.6774 83.4046 45.0986 83.4488 45.1229C85.0302 46.005 85.9907 47.4477 86.0175 48.9805C86.0573 51.2985 84.0342 53.2737 81.3143 53.7739V44.3403ZM74.0083 49.1871C73.9921 48.2185 73.1933 47.4464 72.2247 47.4632C71.2555 47.4794 70.4841 48.2782 70.5002 49.2468C70.5208 50.4083 70.8069 51.5268 71.3525 52.5732C71.867 53.5599 72.588 54.437 73.4969 55.178C74.7219 56.1789 76.2019 56.8639 77.8032 57.1886L77.8374 59.1962C77.8542 60.1648 78.653 60.9368 79.6222 60.92C80.5908 60.9038 81.3622 60.1051 81.3454 59.1364L81.3143 57.3224C83.3623 57.0704 85.2541 56.248 86.7347 54.9515C87.6163 54.1789 88.3074 53.2774 88.7883 52.274C89.2972 51.2096 89.5454 50.0811 89.5249 48.9208C89.4776 46.1226 87.844 43.5576 85.1571 42.059C84.8603 41.8929 83.488 41.1756 81.3143 40.7445V32.7305C82.1374 32.9265 82.8901 33.2879 83.5122 33.7968C84.4317 34.5483 84.9481 35.535 84.9661 36.5745C84.9829 37.5431 85.7817 38.3152 86.7509 38.2984C87.7189 38.2816 88.4909 37.4828 88.4742 36.5142C88.4387 34.4251 87.4645 32.4953 85.7319 31.0801C84.5194 30.0884 83.0307 29.4371 81.4257 29.1783L81.3933 27.2703C81.3765 26.301 80.5778 25.529 79.6085 25.5452C78.6399 25.5626 77.8685 26.3608 77.8853 27.33L77.9176 29.2386C76.3232 29.5522 74.8581 30.2539 73.6786 31.2872C71.9964 32.7616 71.09 34.7231 71.1248 36.8121C71.1603 38.8502 72.0953 40.7482 73.7576 42.1554C73.762 42.1591 73.7663 42.1623 73.7713 42.166C74.9533 43.1477 76.4501 43.5751 77.9176 43.8108V53.6053C75.6656 52.9452 74.0431 51.2257 74.0083 49.1871Z" fill="#1254A0"/>
<mask id="mask1_9313_9370" style="mask-type:luminance" maskUnits="userSpaceOnUse" x="30" y="2" width="91" height="69">
<path d="M30.6758 2.37598H120.836V70.4307H30.6758V2.37598Z" fill="white"/>
</mask>
<g mask="url(#mask1_9313_9370)">
<path d="M46.929 69.4335C47.2395 69.9268 47.7807 70.2242 48.363 70.2242C48.9447 70.2242 49.4865 69.9268 49.797 69.4335L65.754 44.1374C66.0831 43.6148 66.103 42.9547 65.8044 42.4141C65.5058 41.8735 64.9372 41.5376 64.32 41.5376H56.3017C56.4846 38.9272 57.0899 36.3921 58.1102 33.9802C59.3071 31.1496 61.0216 28.6077 63.2046 26.4241C65.3876 24.2412 67.9301 22.5273 70.7607 21.3303C73.6908 20.0905 76.8038 19.4621 80.0133 19.4621C83.2221 19.4621 86.3351 20.0905 89.2659 21.3303C92.0958 22.5273 94.6384 24.2412 96.822 26.4241C99.005 28.6077 100.719 31.1496 101.916 33.9802C103.155 36.911 103.784 40.024 103.784 43.2328C103.784 46.4423 103.155 49.5553 101.916 52.4854C100.718 55.3166 99.005 57.8592 96.822 60.0415C94.639 62.2245 92.0965 63.9384 89.2659 65.136C86.3351 66.3752 83.2221 67.0035 80.0133 67.0035C76.8038 67.0035 73.6908 66.3752 70.7607 65.136C67.9295 63.9384 65.3869 62.2245 63.2046 60.0415C62.5421 59.3796 61.4689 59.3796 60.807 60.0415C60.1451 60.7041 60.1451 61.7772 60.807 62.4391C63.3004 64.9325 66.2044 66.8903 69.4393 68.2589C72.79 69.6761 76.3472 70.3946 80.0133 70.3946C83.6781 70.3946 87.2359 69.6761 90.5866 68.2589C93.8209 66.8903 96.7256 64.9325 99.219 62.4391C101.712 59.9457 103.67 57.0411 105.038 53.8068C106.455 50.4561 107.174 46.8983 107.174 43.2328C107.174 39.568 106.455 36.0102 105.038 32.6595C103.67 29.4252 101.712 26.5206 99.219 24.0272C96.7256 21.5337 93.8209 19.576 90.5866 18.2073C87.2359 16.7908 83.6781 16.0717 80.0133 16.0717C76.3472 16.0717 72.7906 16.7908 69.4393 18.2073C66.205 19.576 63.3004 21.5337 60.807 24.0272C58.3136 26.5206 56.3552 29.4252 54.9872 32.6595C53.7896 35.4913 53.091 38.47 52.9038 41.5376H48.363C47.4267 41.5376 46.6678 42.2972 46.6678 43.2328C46.6678 44.1691 47.4267 44.9281 48.363 44.9281H54.5436C54.5449 44.9281 54.5455 44.9281 54.5467 44.9281C54.548 44.9281 54.5492 44.9281 54.5505 44.9281H61.2462L48.363 65.3518L35.4798 44.9281H40.8517C41.788 44.9281 42.5469 44.1691 42.5469 43.2328C42.5469 22.5745 59.3538 5.76646 80.0133 5.76646C100.672 5.76646 117.479 22.5745 117.479 43.2328C117.479 44.1691 118.239 44.9281 119.174 44.9281C120.111 44.9281 120.87 44.1691 120.87 43.2328C120.87 37.7185 119.789 32.3671 117.658 27.3287C115.6 22.4638 112.655 18.0941 108.903 14.3428C105.151 10.5909 100.782 7.64584 95.9174 5.58791C90.879 3.45658 85.5276 2.37598 80.0133 2.37598C74.4977 2.37598 69.147 3.45658 64.1091 5.58791C59.2436 7.64584 54.8746 10.5909 51.1227 14.3428C47.3714 18.0941 44.4257 22.4638 42.3678 27.3287C40.456 31.8489 39.3897 36.6217 39.1907 41.5376H32.406C31.7888 41.5376 31.2196 41.8735 30.9216 42.4141C30.6236 42.9547 30.6429 43.6148 30.972 44.1374L46.929 69.4335Z" fill="#1254A0"/>
</g>
<mask id="mask2_9313_9370" style="mask-type:luminance" maskUnits="userSpaceOnUse" x="117" y="48" width="4" height="6">
<path d="M117.457 48.4023H120.837V53.0345H117.457V48.4023Z" fill="white"/>
</mask>
<g mask="url(#mask2_9313_9370)">
<path d="M119.176 48.4092C118.24 48.4092 117.48 49.1681 117.48 50.1044V51.2939C117.48 52.2302 118.24 52.9891 119.176 52.9891C120.112 52.9891 120.872 52.2302 120.872 51.2939V50.1044C120.872 49.1681 120.112 48.4092 119.176 48.4092Z" fill="#1254A0"/>
</g>
<mask id="mask3_9313_9370" style="mask-type:luminance" maskUnits="userSpaceOnUse" x="117" y="57" width="4" height="6">
<path d="M117.457 57.3721H120.837V62.0043H117.457V57.3721Z" fill="white"/>
</mask>
<g mask="url(#mask3_9313_9370)">
<path d="M119.176 57.416C118.24 57.416 117.48 58.175 117.48 59.1113V60.3007C117.48 61.237 118.24 61.996 119.176 61.996C120.112 61.996 120.872 61.237 120.872 60.3007V59.1113C120.872 58.175 120.112 57.416 119.176 57.416Z" fill="#1254A0"/>
</g>
</svg>
