<svg width="129" height="130" viewBox="0 0 129 130" fill="none" xmlns="http://www.w3.org/2000/svg">
<path d="M108.347 80.115L95.7917 89.525L92.785 91.777L75.3231 104.873C74.4926 105.503 73.3231 105.326 72.6935 104.496L38.8521 59.3696C38.7644 59.2819 38.7016 59.1811 38.6388 59.0803C38.1859 58.4763 38.1479 57.6837 38.4876 57.0547L42.4 28.7868C42.5387 27.7548 43.4819 27.0381 44.5133 27.1762L46.728 27.5034C47.8602 28.6985 48.6652 30.12 49.2059 31.6803L45.8595 31.1894L42.224 57.596L74.5685 100.747L90.533 88.7704L93.5397 86.5183L104.598 78.2275L72.2406 35.0894L56.1 32.6993C55.8363 31.3151 55.4711 29.9819 54.9678 28.724C60.9058 29.5919 66.8314 30.4721 72.7694 31.353C73.4612 31.2019 74.2158 31.4538 74.6687 32.0703C74.757 32.158 74.8198 32.2464 74.8827 32.3472L108.724 77.4853C109.353 78.3158 109.177 79.486 108.347 80.115Z" fill="#1254A0"/>
<path d="M98.5344 96.3186L65.5112 121.077C64.6807 121.706 63.498 121.543 62.8815 120.712L29.0402 75.5738C28.9518 75.4855 28.889 75.3847 28.8262 75.297C28.3608 74.6805 28.3359 73.8879 28.675 73.259L32.575 44.9905C32.7262 43.959 33.6699 43.2417 34.7013 43.3804L41.7573 44.2875C42.8895 45.4825 41.0101 46.5812 41.5507 48.1408L36.0476 47.3937L32.3989 73.7996L64.7559 116.951L94.7732 94.4317L92.7856 91.7772L95.7922 89.5252L98.9121 93.6896C99.541 94.5195 99.365 95.6896 98.5344 96.3186Z" fill="#1254A0"/>
<path d="M53.0732 48.0615C52.731 48.0615 52.3864 48.0366 52.0417 47.9875C50.1424 47.7162 48.4628 46.7215 47.3119 45.1861C44.9367 42.0184 45.5812 37.5087 48.7489 35.1323C50.2837 33.982 52.1736 33.498 54.0742 33.7686C55.9728 34.0405 57.6525 35.0346 58.8034 36.57C59.9543 38.1047 60.4389 39.9959 60.1671 41.8946C59.8952 43.7939 58.9005 45.4735 57.3664 46.6238C56.1103 47.5657 54.6154 48.0615 53.0732 48.0615ZM50.3316 42.9223C50.8778 43.6508 51.6741 44.1223 52.5755 44.2517C53.4738 44.3811 54.374 44.151 55.1019 43.6041C55.8297 43.0579 56.3025 42.261 56.4307 41.3608C56.5595 40.4594 56.3299 39.5623 55.7837 38.8344C55.2375 38.1053 54.4412 37.6338 53.5398 37.505C52.639 37.3756 51.7413 37.6064 51.0134 38.1526C49.5104 39.2792 49.2043 41.4193 50.3316 42.9223Z" fill="#1254A0"/>
<path d="M54.9146 41.202C54.7361 42.2273 53.7588 42.9147 52.7335 42.7349C51.7083 42.557 51.0203 41.5797 51.2 40.5544C51.2056 40.5227 53.2468 29.3136 45.1277 24.5358C43.6178 23.6462 40.4538 23.5927 37.1118 23.5355C33.7325 23.4776 30.1853 23.4173 27.3018 22.4822C22.4662 20.9152 19.6412 17.3723 22.3505 9.01177C22.6678 8.022 23.7272 7.47828 24.717 7.79555C25.7067 8.11282 26.2505 9.17227 25.9332 10.162C24.1241 15.7442 25.675 18.0006 28.4521 18.9014C30.8198 19.6685 34.0728 19.7251 37.1709 19.7773C41.0249 19.8426 44.6723 19.9061 47.0301 21.294C57.428 27.4155 54.9227 41.1647 54.9159 41.2033L54.9146 41.202Z" fill="#1254A0"/>
<path d="M77.2044 52.4225C79.1323 54.9937 79.0029 58.0918 75.9982 60.3444C72.994 62.5964 69.9843 61.8512 68.0563 59.28C66.1291 56.7095 66.2379 53.584 69.2421 51.332C72.2469 49.0793 75.2771 49.8514 77.2044 52.4225ZM71.6359 54.5252C70.3637 55.4789 70.1616 56.3922 70.77 57.2034C71.3796 58.0165 72.3321 58.1042 73.6043 57.1505C74.9032 56.1769 75.0868 55.2376 74.4777 54.4245C73.8693 53.6126 72.9349 53.551 71.6359 54.5252ZM84.819 63.1993C85.9338 64.6874 85.0492 66.8268 83.2084 67.0912L61.8658 70.1606C60.9799 70.2876 60.0952 69.9218 59.5584 69.2057C58.4429 67.7176 59.3282 65.5782 61.169 65.3138L82.5116 62.245C83.3969 62.1174 84.2821 62.4832 84.819 63.1993ZM76.3409 73.1517C78.2682 75.7229 78.1668 78.8011 75.1353 81.0736C72.1305 83.3257 69.1201 82.581 67.1929 80.0098C65.2656 77.4387 65.3943 74.3406 68.3991 72.0879C71.4306 69.8154 74.4136 70.5806 76.3409 73.1517ZM70.7731 75.2545C69.5003 76.2081 69.2974 77.122 69.9059 77.9339C70.5143 78.7451 71.4686 78.8341 72.7414 77.8797C74.013 76.9261 74.2227 75.9655 73.6142 75.1537C73.0058 74.3418 72.0447 74.3008 70.7731 75.2545Z" fill="#1254A0"/>
</svg>
